<svg xmlns="http://www.w3.org/2000/svg" viewBox="0 0 1200 760"><defs><linearGradient id="bg" x2="0" y2="1"><stop stop-color="#152b2d"/><stop offset="1" stop-color="#274648"/></linearGradient><linearGradient id="step" x2="1"><stop stop-color="#eeb66d"/><stop offset="1" stop-color="#ffdd91"/></linearGradient><filter id="shadow"><feDropShadow dx="0" dy="18" stdDeviation="18" flood-color="#081617" flood-opacity=".4"/></filter></defs><rect width="1200" height="760" rx="34" fill="url(#bg)"/><path d="M0 170h1200M0 270h1200M0 370h1200M0 470h1200M0 570h1200M0 670h1200M170 0v760M340 0v760M510 0v760M680 0v760M850 0v760M1020 0v760" stroke="#d3e3d5" stroke-opacity=".055" stroke-width="2"/><text x="68" y="72" fill="#bbd3c8" font-family="Arial,sans-serif" font-size="18" letter-spacing="4">CODY / FIELD NOTES</text><text x="1090" y="72" text-anchor="end" fill="#bbd3c8" font-family="Arial,sans-serif" font-size="18">03 — BUILDING</text><circle cx="935" cy="214" r="115" fill="#f2bf72" opacity=".12"/><circle cx="935" cy="214" r="72" fill="#f2bf72" opacity=".12"/><g filter="url(#shadow)"><path d="M131 574h204v-76h180v-78h180v-93h180v-95h183v341H131z" fill="#132426" stroke="#52716c" stroke-width="2"/><path d="M131 574h204v-76h180v-78h180v-93h180v-95h183" fill="none" stroke="url(#step)" stroke-width="18" stroke-linejoin="round"/><path d="M139 574h188v-76h180v-78h180v-93h180v-95h175" fill="none" stroke="#e8ad60" stroke-width="5" stroke-linejoin="round"/><g transform="translate(247 418)"><circle cx="0" cy="-26" r="16" fill="#f1c58b"/><path d="M-1-8l-10 52h34L10-8z" fill="#e99870"/><path d="M-10 44l-22 42M20 44l20 36" stroke="#f0cf9b" stroke-width="12" stroke-linecap="round"/><path d="M-2 5l-28 20M10 5l29 15" stroke="#f0cf9b" stroke-width="9" stroke-linecap="round"/></g><g transform="translate(936 188)"><path d="M0-44c-24 0-42 18-42 42 0 31 42 72 42 72S42 29 42-2C42-26 24-44 0-44z" fill="#f2bf72"/><circle cy="-3" r="13" fill="#264448"/></g></g><text x="68" y="682" fill="#f6efdc" font-family="Arial,sans-serif" font-size="25" font-weight="700" letter-spacing="1">CONFIDENCE FOLLOWS THE FIRST STEP</text><text x="1090" y="682" text-anchor="end" fill="#afc5b9" font-family="Arial,sans-serif" font-size="16">START IMPERFECTLY</text></svg>