<svg xmlns="http://www.w3.org/2000/svg" viewBox="0 0 1200 760"><defs><linearGradient id="bg" x2="1" y2="1"><stop stop-color="#201b3e"/><stop offset="1" stop-color="#46315e"/></linearGradient><linearGradient id="pane" x2="0" y2="1"><stop stop-color="#292744"/><stop offset="1" stop-color="#17192b"/></linearGradient><filter id="shadow" x="-.2" y="-.2" width="1.4" height="1.5"><feDropShadow dx="0" dy="24" stdDeviation="22" flood-color="#0a0816" flood-opacity=".35"/></filter></defs><rect width="1200" height="760" rx="34" fill="url(#bg)"/><circle cx="1060" cy="70" r="250" fill="#cf72ff" opacity=".13"/><text x="68" y="72" fill="#d4c5ed" font-family="Arial,sans-serif" font-size="18" letter-spacing="4">CODY / CSS PRACTICE</text><text x="1090" y="72" text-anchor="end" fill="#c7b8dc" font-family="Arial,sans-serif" font-size="18">01 — 12</text><g filter="url(#shadow)"><rect x="70" y="154" width="492" height="438" rx="22" fill="url(#pane)" stroke="#7d62a2" stroke-width="2"/><rect x="70" y="154" width="492" height="52" rx="22" fill="#34304f"/><path d="M70 184v22h492v-22" fill="#34304f"/><circle cx="103" cy="180" r="7" fill="#ff718c"/><circle cx="128" cy="180" r="7" fill="#ffcc74"/><circle cx="153" cy="180" r="7" fill="#83e4b2"/><text x="188" y="187" fill="#e5dcf1" font-family="monospace" font-size="15">layout.css</text><text x="101" y="248" fill="#cf86ff" font-family="monospace" font-size="17">.card</text><text x="154" y="248" fill="#c4c0d8" font-family="monospace" font-size="17">{</text><text x="126" y="284" fill="#83d9e8" font-family="monospace" font-size="16">display</text><text x="226" y="284" fill="#e3d8f1" font-family="monospace" font-size="16">: grid;</text><text x="126" y="320" fill="#83d9e8" font-family="monospace" font-size="16">place-items</text><text x="249" y="320" fill="#e3d8f1" font-family="monospace" font-size="16">: center;</text><text x="126" y="356" fill="#83d9e8" font-family="monospace" font-size="16">gap</text><text x="178" y="356" fill="#e3d8f1" font-family="monospace" font-size="16">: 1rem;</text><text x="101" y="392" fill="#c4c0d8" font-family="monospace" font-size="17">}</text><path d="M101 438h300M101 468h210M101 498h252" stroke="#796d91" stroke-width="8" stroke-linecap="round" opacity=".5"/><rect x="612" y="126" width="508" height="484" rx="25" fill="#f5f0e8"/><rect x="612" y="126" width="508" height="48" rx="25" fill="#e6dfd5"/><path d="M612 151v23h508v-23" fill="#e6dfd5"/><circle cx="644" cy="151" r="6" fill="#a98bab"/><circle cx="666" cy="151" r="6" fill="#a98bab"/><circle cx="688" cy="151" r="6" fill="#a98bab"/><rect x="650" y="207" width="432" height="352" rx="18" fill="#ded7f4"/><rect x="675" y="232" width="382" height="54" rx="13" fill="#ffffff"/><circle cx="705" cy="259" r="10" fill="#7760bd"/><path d="M730 255h172M730 269h105" stroke="#beb7cd" stroke-width="7" stroke-linecap="round"/><rect x="675" y="307" width="175" height="224" rx="15" fill="#f7a58b"/><rect x="864" y="307" width="193" height="100" rx="15" fill="#7565bd"/><rect x="864" y="420" width="193" height="111" rx="15" fill="#8bc6ac"/><circle cx="839" cy="371" r="36" fill="#f4c968"/><circle cx="839" cy="371" r="12" fill="#46315e"/><circle cx="578" cy="367" r="45" fill="#f5cb70" stroke="#201b3e" stroke-width="10"/><text x="578" y="376" text-anchor="middle" fill="#261d3e" font-family="Arial,sans-serif" font-weight="700" font-size="22">VS</text></g><text x="70" y="682" fill="#f4effa" font-family="Arial,sans-serif" font-size="25" font-weight="700" letter-spacing="1">SAME BRIEF. DIFFERENT CSS.</text><text x="1120" y="682" text-anchor="end" fill="#d0c3e0" font-family="Arial,sans-serif" font-size="16">LAYOUT / RHYTHM / DETAIL</text></svg>